<svg xmlns="http://www.w3.org/2000/svg" width="56" height="32" viewBox="0 0 70.219 40"><path fill="#2D5EA7" stroke="#2D5EA7" stroke-width=".158" stroke-miterlimit="10" d="M44.719 14.658c-.66-.787-1.631-1.215-2.734-1.215h-2.738c-1.98 0-3.9 1.424-4.572 3.283a.556.556 0 0 0-.098.221l-.078.395c-.002 0-.002.002-.002.004l-1.049 5.35c-.008.035-.01.066-.016.102l-1.889 9.648a.554.554 0 0 0 1.09.211l1.402-7.172c.027.035.053.076.082.113.648.785 1.611 1.219 2.719 1.219h2.979c2.199 0 4.301-1.764 4.684-3.93l.943-5.326c.191-1.088-.067-2.118-.723-2.903zm-.369 2.711l-.943 5.324c-.289 1.635-1.934 3.016-3.592 3.016h-2.979c-.768 0-1.43-.291-1.861-.816-.414-.498-.57-1.164-.457-1.879l1.068-5.455c.32-1.631 1.996-3.01 3.66-3.01h2.738c.768 0 1.441.291 1.887.82.44.529.615 1.24.479 2zm12.748-3.926h-5.557c-1.502-.027-2.928.453-3.807 1.312-.656.641-1.008 1.48-1.014 2.424-.061.639.006 1.543.641 2.287.572.668 1.475 1.045 2.682 1.111.01.002.021.002.029.002h3.039c1.799.158 2.666.932 2.654 2.361a2.53 2.53 0 0 1-.791 1.869c-.707.688-1.816 1.098-2.906 1.072H45.76a.554.554 0 0 0-.551.557c0 .305.248.553.551.553h6.412c1.33 0 2.691-.525 3.574-1.389a3.632 3.632 0 0 0 1.129-2.656c.012-1.178-.457-3.195-3.693-3.473-.016-.004-.033-.004-.047-.004h-3.041c-.889-.053-1.521-.295-1.889-.723-.393-.459-.422-1.059-.377-1.482v-.057c0-.66.23-1.219.68-1.66.66-.645 1.809-1.025 3.021-1h5.568a.554.554 0 0 0 .555-.555.55.55 0 0 0-.554-.549zm12.291 1.09c-.541-.727-1.121-1.023-2.408-1.096-.902-.061-1.727-.188-3.801 0-2.459.139-3.725 1.615-4.125 3.492-.172 1.113-.715 4.262-.996 6.484-.281 2.221 1.346 3.318 2.451 3.498l.004-.002c.531.07 4.115.084 6.092.084.768 0 1.289-.002 1.305-.002a.555.555 0 0 0-.066-1.105c-.488.027-6.479 0-6.975-.055-.004 0 .006.002 0 0-.902-.148-1.373-.865-1.535-1.533-.209-.861.15-2.395.287-3.393h9.539a.55.55 0 0 0 .529-.402c.048-.161 1.158-4.026-.301-5.97zm-.659 5.266h-8.877a30.6 30.6 0 0 1 .537-2.779c.188-.725.754-2.178 3.025-2.445 1.051-.117 3.582-.027 3.582-.027.727.102 1.176.213 1.508.652.825 1.101.507 3.409.225 4.599z"/><g fill="#F9B725"><circle cx="22.4" cy="7.413" r="1.413"/><circle cx="25.113" cy="11.561" r="1.412"/><path d="M25.113 26.818a1.411 1.411 0 1 0 0 2.822 1.412 1.412 0 0 0 0-2.822z"/><circle cx="19.576" cy="11.561" r="1.412"/><circle cx="11.4" cy="7.413" r=".872"/><path d="M8.65 12.434a.871.871 0 0 0 .871-.873.87.87 0 0 0-.871-.873.874.874 0 0 0-.873.873c0 .48.393.873.873.873z"/><circle cx="5.967" cy="15.893" r=".873"/><circle cx="4.583" cy="19.961" r=".872"/><circle cx="5.967" cy="24.294" r=".872"/><circle cx="8.707" cy="28.229" r=".668"/><circle cx="4.607" cy="28.229" r=".485"/><circle cx="1.844" cy="24.295" r=".486"/><circle cx=".488" cy="19.96" r=".485"/><circle cx="1.844" cy="15.892" r=".487"/><path d="M4.582 12.045a.486.486 0 1 0 .004-.972.486.486 0 0 0-.004.972z"/><circle cx="14.207" cy="28.228" r=".872"/><circle cx="11.416" cy="32.328" r=".873"/><circle cx="16.918" cy="24.295" r="1.133"/><circle cx="16.918" cy="32.589" r="1.134"/><path d="M19.576 27.096a1.134 1.134 0 1 0 .001 2.267 1.134 1.134 0 0 0-.001-2.267z"/><circle cx="14.207" cy="11.56" r="1.134"/><circle cx="11.416" cy="15.894" r="1.134"/><circle cx="8.65" cy="19.961" r="1.133"/><circle cx="11.416" cy="24.295" r="1.133"/><circle cx="22.4" cy="32.588" r="1.412"/><path d="M26.623 19.566l-3.051-3.955v-.006h-5.271a1.41 1.41 0 0 0-2.793.287 1.412 1.412 0 1 0 2.756.43h4.756l2.504 3.244h-9.961a1.412 1.412 0 1 0 .02.718h12.654l-1.873 3.648h-2.598a1.413 1.413 0 1 0 0 .72h3.156v-.02l2.232-4.35h3.299l.156-.719h-5.986z"/></g><path d="M37.201 9.355c-.184-.006-1.139 0-1.184 0a.116.116 0 0 0-.115.115c0 .066.051.119.115.119h.002c.01 0 1.004-.008 1.18 0h.004c.027 0 .188.021.289.137.076.09.102.217.074.377l-.068.385h-1.201a.895.895 0 0 0-.857.756l-.002.014c-.016.25.057.475.197.617a.632.632 0 0 0 .451.174h1.209a.101.101 0 0 0 .037-.008l.018.004c.006 0 .012.004.018.004a.119.119 0 0 0 .117-.1l.312-1.807c.053-.291-.037-.471-.125-.57a.67.67 0 0 0-.471-.217zm-1.07 2.454h-.006c-.139.01-.244-.023-.322-.1-.092-.094-.141-.252-.133-.432.109-.537.605-.553.627-.555h1.16l-.188 1.086h-1.138zm3.65 0h-1.178c-.186-.008-.318-.064-.396-.166-.123-.158-.072-.391-.072-.396.002 0 .002-.002.002-.002l.219-1.18c.07-.268.275-.428.607-.475.008-.002.014-.002.02-.006.07-.008.693-.004 1.244.004a.118.118 0 0 0 .119-.117.12.12 0 0 0-.117-.119c-.275-.004-1.191-.018-1.285.004l-.016.002c-.545.076-.736.398-.799.652l-.002.006-.223 1.186c-.008.035-.068.344.115.584.117.16.312.25.576.264h1.186c.07 0 .123-.055.123-.121a.12.12 0 0 0-.123-.12zm2.742-2.205c-.176-.227-.451-.258-.463-.26h-.77a1.033 1.033 0 0 0-.475.178l.211-1.227a.114.114 0 0 0-.098-.133c-.064-.016-.123.031-.137.096l-.633 3.693a.12.12 0 0 0 .096.137c.008.002.014.002.02.002a.117.117 0 0 0 .117-.1l.32-1.863a.103.103 0 0 0 .023-.057c.062-.426.521-.486.568-.49h.734a.472.472 0 0 1 .295.168c.074.1.098.238.066.416l-.307 1.787a.123.123 0 0 0 .098.137c.008.002.014.002.02.002.057 0 .104-.041.119-.1l.305-1.787c.046-.244.007-.443-.109-.599z" fill="#2D5EA7" stroke="#2D5EA7" stroke-width=".158" stroke-miterlimit="10"/></svg>