<?xml version="1.0" encoding="utf-8"?>
<!-- Uploaded to: SVG Repo, www.svgrepo.com, Generator: SVG Repo Mixer Tools -->
<svg fill="#000000" width="800px" height="800px" viewBox="-5.5 0 32 32" version="1.1" xmlns="http://www.w3.org/2000/svg">
<title>credit-card</title>
<path d="M18.28 8.12h-15.36c-1.6 0-2.92 1.32-2.92 2.92v9.92c0 1.6 1.32 2.92 2.92 2.92h15.36c1.6 0 2.92-1.32 2.92-2.92v-9.92c0-1.6-1.32-2.92-2.92-2.92zM2.92 9.8h15.36c0.68 0 1.24 0.56 1.24 1.24v1.6h-17.8v-1.6c0-0.68 0.52-1.24 1.2-1.24zM18.28 22.2h-15.36c-0.68 0-1.24-0.56-1.24-1.24v-6.64h17.8v6.64c0.040 0.68-0.52 1.24-1.2 1.24z"></path>
</svg>